<?xml version="1.0" encoding="UTF-8"?>
<svg id="Layer_1" data-name="Layer 1" xmlns="http://www.w3.org/2000/svg" version="1.1" viewBox="0 0 158 158">
  <defs>
    <style>
      .cls-1 {
        fill: #001aff;
        stroke-width: 0px;
      }
    </style>
  </defs>
  <g id="Logo">
    <path id="Symbol" class="cls-1" d="M75.04,18.39C99.72,9.83,125.79.48,157.44.48v21.89c-27.67,0-50.56,8.16-75.24,16.72C57.72,47.65,31.65,57,0,57v-21.89c27.67,0,50.56-8.16,75.04-16.72ZM0,67.95h157.44v22.09H0v-22.09ZM0,135.62c27.67,0,50.56-8.16,75.04-16.72,24.68-8.56,50.75-17.91,82.4-17.91v21.89c-27.67,0-50.56,8.16-75.24,16.72C57.72,148.16,31.65,157.51,0,157.51v-21.89Z"/>
  </g>
</svg>